<?xml version="1.0" encoding="UTF-8" standalone="no"?>
<!DOCTYPE svg PUBLIC "-//W3C//DTD SVG 1.1//EN" "http://www.w3.org/Graphics/SVG/1.1/DTD/svg11.dtd">
<svg width="100%" height="100%" viewBox="0 0 643 646" version="1.1" xmlns="http://www.w3.org/2000/svg" xmlns:xlink="http://www.w3.org/1999/xlink" xml:space="preserve" xmlns:serif="http://www.serif.com/" style="fill-rule:evenodd;clip-rule:evenodd;stroke-linejoin:round;stroke-miterlimit:2;">
    <path d="M160.148,185.464L160.148,103.28C160.148,88.011 161.733,74.111 164.902,61.579C168.071,49.047 173.256,38.172 180.459,28.953C187.661,19.734 197.168,12.604 208.979,7.562C220.791,2.521 235.339,0 252.625,0L390.716,0C408.001,0 422.55,2.521 434.361,7.562C446.173,12.604 455.68,19.734 462.882,28.953C470.084,38.172 475.27,49.047 478.439,61.579C481.608,74.111 483.193,88.011 483.193,103.28L483.193,185.464L642.341,185.464L642.341,436.922C642.341,467.35 640.13,495.051 635.706,520.023C631.283,544.997 624.044,566.669 613.991,585.04C603.938,603.413 590.668,617.621 574.18,627.669C557.693,637.715 537.385,642.739 513.258,642.739L127.67,642.739L127.67,642.721C104.599,642.396 85.095,637.378 69.16,627.669C52.673,617.621 39.403,603.413 29.35,585.04C19.296,566.669 12.058,544.997 7.635,520.023C3.211,495.051 0.999,467.35 0.999,436.922L0.999,185.464L160.148,185.464ZM402.053,358.263L418.263,358.263L418.263,406.895L434.474,406.895L434.474,487.947L418.263,487.947L418.263,520.368L402.053,520.368L402.053,536.579L385.842,536.579L385.842,552.789L353.421,552.789L353.421,569L288.579,569L288.579,552.789L256.158,552.789L256.158,536.579L239.947,536.579L239.947,520.368L223.737,520.368L223.737,487.947L207.526,487.947L207.526,406.895L223.737,406.895L223.737,342.053L239.947,342.053L239.947,293.421L256.158,293.421L256.158,261L272.368,261L272.368,293.421L288.579,293.421L288.579,309.632L304.789,309.632L304.789,293.421L321,293.421L321,277.211L337.211,277.211L337.211,309.632L369.632,309.632L369.632,293.421L385.842,293.421L385.842,277.211L402.053,277.211L402.053,358.263ZM443.004,185.464L200.337,185.464L200.337,111.923C200.337,84.554 204.658,64.964 213.301,53.153C221.943,41.341 236.492,35.435 256.946,35.435L386.395,35.435C406.849,35.435 421.397,41.341 430.04,53.153C438.683,64.964 443.004,84.554 443.004,111.923L443.004,185.464Z" style="fill:rgb(241,240,233);"/>
</svg>
